<svg xmlns="http://www.w3.org/2000/svg" viewBox="0 0 931.57 829.71"><g id="Capa_2" data-name="Capa 2"><g id="Layer_1" data-name="Layer 1"><path d="M255,55.28c3.79,2.78,2.57,9.52,1.73,13.37-1.66,7.62-4.09,15.13-6.15,22.65Q244,115.11,237.68,139q-12.75,47.93-24.84,96-12.14,48.35-23.58,96.85-11.38,48.27-22.09,96.7t-20.71,97q-1.26,6.11-2.5,12.2c-1.16,5.66,7.52,8.08,8.68,2.4q10.11-49.54,20.94-98.92T196,342.62q11.55-49.23,23.81-98.27Q232.1,195.08,245.13,146q6.47-24.32,13.09-48.58c2.19-8,4.51-16,6.62-24.06,1.51-5.8,2.65-12.59.47-18.37a16,16,0,0,0-5.79-7.45c-2-1.43-5-.33-6.16,1.62C252,51.41,253,53.84,255,55.28Z"/><path d="M5.5,180.33c30.72-10.36,61-22,91-34.23,30.18-12.31,60.11-25.23,90-38.13s59.66-25.7,89.77-37.85,60.19-23.52,90.89-33.58a879.9,879.9,0,0,1,93.3-25.37q5.94-1.24,11.89-2.39c2.39-.46,3.75-3.32,3.15-5.53A4.61,4.61,0,0,0,470,.1a842.84,842.84,0,0,0-93.69,24.06C345.53,33.87,315.21,45,285.2,56.93,254.82,69,224.76,81.79,194.74,94.71c-29.74,12.8-59.44,25.71-89.36,38.09s-60.16,24.25-90.79,34.91q-5.73,2-11.49,3.94c-5.46,1.84-3.11,10.53,2.4,8.68Z"/><path d="M97.34,285.89q42.12-16,85.38-28.76,43-12.67,86.85-22.08,24.71-5.3,49.62-9.52c2.33-.4,3.84-3.39,3.15-5.54a4.63,4.63,0,0,0-5.54-3.14q-44.42,7.54-88.18,18.46-43.47,10.86-86.06,25-24,8-47.61,16.93c-2.2.84-3.94,3.08-3.14,5.54.69,2.14,3.17,4,5.53,3.14Z"/><path d="M531.28,48.22A1069.79,1069.79,0,0,0,427.79,199.85Q415,222.61,403.33,246c-2.58,5.16,4.65,9.47,7.77,4.54a438,438,0,0,1,51.22-66.07q14.22-15.09,29.81-28.81c10.25-9,20.8-18.07,32.5-25.16,12.27-7.43,27.86-13.72,42-7.72L564.57,120c1.75,11.92-4.78,23.18-11.27,32.63-7.44,10.84-15.62,21.22-23.48,31.76l-49.38,66.3a4.52,4.52,0,0,0,.71,5.46c8.83,8,20.62,8.19,31.77,6.11,13.73-2.57,27.23-7.24,40.68-11L642,226.53,637.59,219q-92.45,84.18-184.49,168.8-91.82,84.85-181.94,171.5-50.78,49.07-100.63,99c-3.47,3.49,1.26,10.23,5.46,7.07q70.24-53,141.9-104.08Q389.25,510.46,462,461.53t146.7-95.9Q683,318.47,758.5,273.34q75.24-44.94,151.66-87.85,9.58-5.38,19.2-10.74c5.06-2.82.53-10.6-4.54-7.77q-76.87,42.83-152.57,87.7-75.37,44.7-149.54,91.42t-147,95.4q-73.17,48.88-145,99.74Q259.16,591.88,189,644.43q-8.81,6.59-17.59,13.21l5.46,7.07q88.23-88.56,179.34-174.19,90.9-85.83,183.37-170Q591.72,272.87,644,225.38c3.38-3.08-.17-8.7-4.38-7.52L557,241c-13.27,3.72-26.49,7.7-39.83,11.13-9.39,2.42-21.66,4.93-29.61-2.31l.71,5.45L539.82,186c8.12-10.91,16.87-21.58,24.11-33.11,6.18-9.83,11.68-22.08,9.5-34-1-5.74-9.32-6.67-14.23-7.25a47.14,47.14,0,0,0-17,1.32c-11.72,3-22.49,9.34-32.15,16.45C490.23,144,471.9,161,455.07,179A450.89,450.89,0,0,0,403.33,246l7.77,4.54a1065.21,1065.21,0,0,1,94.84-155q15.34-20.83,31.71-40.87c3.63-4.45-2.7-10.86-6.37-6.36Z"/><path d="M849.16,306.52l-1.5-1.5a3.36,3.36,0,0,0-1.45-.93,3.47,3.47,0,0,0-1.74-.39,3.44,3.44,0,0,0-1.73.39,3.36,3.36,0,0,0-1.45.93l-.7.91a4.53,4.53,0,0,0-.62,2.27l.16,1.2a4.52,4.52,0,0,0,1.16,2l1.5,1.5a4.64,4.64,0,0,0,6.37,0l.7-.91a4.42,4.42,0,0,0,.61-2.27l-.16-1.19a4.48,4.48,0,0,0-1.15-2Z"/><path d="M846.81,305.82c-1.15-5.06-5.89-7.32-10.76-6.91-5.61.48-9.94,3.46-14.47,6.53L784.8,330.39q-37.08,25.17-74.09,50.41Q637,431.16,563.82,482.36q-72.75,51.1-144.37,103.81-71.67,52.92-141.6,108.13Q208.22,749.47,141,807.57q-8.4,7.27-16.74,14.61c-4.36,3.82,2,10.17,6.36,6.36Q195.85,771.26,263.69,717q68.08-54.59,138.13-106.63,69.65-51.93,140.66-102Q613.72,458,685.77,408.74c47.79-32.76,95.57-65.55,143.7-97.8a16.56,16.56,0,0,1,6.16-2.91c.66-.13,1.46,0,2.09-.18.24-.06,1.17.34.58.08-.39-.18-.5-1.18-.17.28,1.27,5.65,10,3.26,8.68-2.39Z"/></g></g></svg>