<svg width="108" height="31" viewBox="0 0 108 31" fill="none" xmlns="http://www.w3.org/2000/svg">
<path d="M19.637 0.457214H15.0063C6.71872 0.457214 0 7.1924 0 15.5002V30.5428H19.637C27.9246 30.5428 34.6428 23.8081 34.6428 15.5002C34.6428 7.19141 27.9246 0.457214 19.637 0.457214ZM24.8721 18.4928C22.8821 17.7665 20.8787 17.1453 18.7146 16.8899C18.9729 19.0598 19.5876 21.0611 20.32 23.062H14.306C15.038 21.0606 15.6497 19.0564 15.9115 16.8953C13.7834 17.1359 11.7796 17.7516 9.77027 18.4953V12.4799C11.7622 13.2087 13.7666 13.8234 15.907 14.0779C15.6596 11.9481 15.0513 9.9468 14.3124 7.93607H20.3101C19.5767 9.92646 18.9739 11.9298 18.7126 14.0759C20.8644 13.8318 22.8667 13.2067 24.8716 12.4745L24.8721 18.4928Z" fill="#105AFF"/>
<path d="M48.5975 6.19147V13.2561H47.6774V9.98869H44.0983V13.2561H43.1887V6.19147H44.0983V9.2485H47.6774V6.19147H48.5975Z" fill="#105AFF"/>
<path d="M51.2165 6.19147V13.2561H50.3069V6.19147H51.2165Z" fill="#105AFF"/>
<path d="M57.1449 12.3546C56.9733 12.6539 56.7201 12.8977 56.415 13.0576C56.0883 13.2376 55.6851 13.3277 55.2054 13.328C54.7768 13.3359 54.3518 13.2486 53.9608 13.0725C53.6158 12.9171 53.3164 12.6756 53.0912 12.371C52.8743 12.0733 52.7444 11.721 52.7161 11.3535H53.6861C53.7087 11.5622 53.7787 11.7629 53.8905 11.9404C54.0146 12.1372 54.1866 12.2992 54.3903 12.4112C54.6313 12.5406 54.902 12.6044 55.1752 12.5963C55.5751 12.5963 55.8818 12.4894 56.0952 12.2758C56.3087 12.0621 56.4153 11.7883 56.415 11.4542C56.415 11.1668 56.3401 10.933 56.1903 10.7527C56.039 10.5713 55.8496 10.4257 55.6355 10.3265C55.3429 10.1957 55.0424 10.0835 54.7358 9.99068C54.3691 9.87501 54.01 9.73615 53.6608 9.57494C53.3855 9.44051 53.1483 9.23886 52.971 8.98854C52.7809 8.72824 52.6861 8.38428 52.6864 7.95663C52.6795 7.61373 52.7715 7.2761 52.9512 6.98425C53.1354 6.69735 53.3995 6.47088 53.7108 6.33286C54.0408 6.17907 54.4289 6.10217 54.8753 6.10217C55.5682 6.10217 56.118 6.27101 56.5248 6.6087C56.922 6.92795 57.1772 7.39156 57.235 7.89859H56.2551C56.1975 7.61064 56.0462 7.34997 55.825 7.15739C55.5918 6.94374 55.2752 6.83674 54.8753 6.83641C54.5088 6.83641 54.2155 6.93167 53.9954 7.12217C53.7753 7.31268 53.6655 7.58157 53.6658 7.92885C53.6658 8.2032 53.7371 8.42496 53.8811 8.59513C54.0265 8.76776 54.2093 8.90485 54.4156 8.99598C54.7027 9.12068 54.9965 9.22949 55.2955 9.32192C55.669 9.43795 56.0346 9.57849 56.3897 9.74263C56.6723 9.88138 56.9151 10.09 57.0949 10.3489C57.2879 10.6197 57.3846 10.9789 57.3849 11.4264C57.3864 11.7514 57.3037 12.0713 57.1449 12.3546V12.3546Z" fill="#105AFF"/>
<path d="M63.173 6.19149V6.93565H61.1835V13.2561H60.2734V6.93218H58.2839V6.18802L63.173 6.19149Z" fill="#105AFF"/>
<path d="M69.3163 6.56257C69.8389 6.86967 70.2662 7.31622 70.5506 7.85245C70.8505 8.40379 71.0006 9.02675 71.0009 9.7213C71.0013 10.4159 70.8512 11.0388 70.5506 11.5901C70.2662 12.1264 69.8389 12.5729 69.3163 12.88C68.7804 13.1907 68.1705 13.3501 67.5515 13.3414C66.9296 13.3494 66.3169 13.19 65.7773 12.88C65.2501 12.5753 64.8187 12.1284 64.5321 11.5901C64.2322 11.0388 64.0824 10.4159 64.0828 9.7213C64.0831 9.02675 64.2329 8.40379 64.5321 7.85245C64.8187 7.31422 65.2501 6.86734 65.7773 6.56257C66.3168 6.25234 66.9296 6.093 67.5515 6.10119C68.1706 6.09222 68.7805 6.25166 69.3163 6.56257V6.56257ZM66.2479 7.28887C65.862 7.51606 65.5496 7.85007 65.3482 8.25083C65.1315 8.66855 65.0231 9.15805 65.0231 9.71931C65.0231 10.274 65.1315 10.7616 65.3482 11.1823C65.5483 11.5854 65.8609 11.9215 66.2479 12.1498C66.6448 12.377 67.0955 12.4929 67.5525 12.4851C68.007 12.4921 68.4547 12.3742 68.8472 12.1443C69.2331 11.9149 69.5454 11.5793 69.7469 11.1774C69.963 10.7603 70.0714 10.2743 70.072 9.71931C70.072 9.15705 69.9636 8.66756 69.7469 8.25083C69.5458 7.8499 69.2333 7.51582 68.8472 7.28887C68.4535 7.06244 68.0063 6.94658 67.5525 6.9535C67.0946 6.9453 66.6431 7.06117 66.2455 7.28887H66.2479Z" fill="#105AFF"/>
<path d="M76.2187 13.2561L74.3797 10.3697H73.3898V13.2561H72.4812V6.19147H74.8008C75.6006 6.19147 76.2004 6.38363 76.6003 6.76795C77.0002 7.15227 77.2001 7.66177 77.2001 8.29646C77.2001 8.87096 77.0401 9.334 76.72 9.68557C76.4 10.0371 75.9369 10.2561 75.3309 10.3424L77.2486 13.2561H76.2187ZM73.3898 9.70839H74.7191C75.7525 9.70839 76.269 9.25395 76.2687 8.34508C76.2684 7.43621 75.7518 6.98194 74.7191 6.98227H73.3898V9.70839Z" fill="#105AFF"/>
<path d="M79.4677 6.19147V13.2561H78.5581V6.19147H79.4677Z" fill="#105AFF"/>
<path d="M85.3066 11.6234H82.2075L81.6176 13.2561H80.6377L83.2468 6.32095H84.2772L86.8759 13.2561H85.8965L85.3066 11.6234ZM85.0467 10.912L83.757 7.34393L82.4673 10.912H85.0467Z" fill="#105AFF"/>
<path d="M92.2641 12.3546C92.0926 12.6538 91.8395 12.8977 91.5346 13.0576C91.2079 13.2376 90.8048 13.3277 90.3251 13.328C89.8965 13.3358 89.4714 13.2486 89.0804 13.0725C88.7354 12.9171 88.4361 12.6756 88.2109 12.371C87.994 12.0733 87.8641 11.721 87.8357 11.3535H88.8057C88.8283 11.5623 88.8984 11.763 89.0106 11.9404C89.1345 12.1375 89.3065 12.2995 89.5105 12.4112C89.7266 12.5349 89.988 12.5966 90.2949 12.5962C90.6954 12.5962 91.0021 12.4894 91.2149 12.2758C91.4277 12.0621 91.5342 11.7883 91.5346 11.4542C91.5346 11.1668 91.4597 10.933 91.3099 10.7527C91.1587 10.5713 90.9692 10.4257 90.7551 10.3265C90.4626 10.1957 90.1621 10.0835 89.8554 9.99068C89.4887 9.87492 89.1297 9.73606 88.7805 9.57494C88.5053 9.44049 88.2682 9.23884 88.0911 8.98854C87.9007 8.72824 87.8057 8.38428 87.806 7.95663C87.7991 7.61373 87.8911 7.2761 88.0708 6.98425C88.2551 6.69735 88.5192 6.47088 88.8305 6.33286C89.1604 6.17907 89.5486 6.10217 89.9949 6.10217C90.6878 6.10217 91.2378 6.27101 91.6449 6.6087C92.0417 6.92825 92.2967 7.39174 92.3546 7.89858H91.3747C91.3171 7.61076 91.1661 7.35014 90.9452 7.15739C90.7116 6.94374 90.3948 6.83674 89.9949 6.83641C89.6281 6.83641 89.3349 6.93167 89.1155 7.12217C88.8961 7.31268 88.7861 7.58157 88.7854 7.92885C88.7854 8.2032 88.8567 8.42496 89.0007 8.59512C89.1461 8.76776 89.3289 8.90485 89.5352 8.99598C89.8223 9.12068 90.1161 9.22949 90.4151 9.32192C90.7888 9.43804 91.1545 9.57858 91.5098 9.74263C91.7923 9.88139 92.0349 10.09 92.2146 10.3489C92.4076 10.6197 92.5043 10.9789 92.5046 11.4264C92.5059 11.7515 92.423 12.0713 92.2641 12.3546V12.3546Z" fill="#105AFF"/>
<path d="M102.201 11.5882C101.916 12.1187 101.475 12.5489 100.938 12.821C100.381 13.1117 99.7131 13.2571 98.9335 13.2571H96.6936V6.19147H98.9335C99.7131 6.19147 100.381 6.33352 100.938 6.61762C101.476 6.88366 101.918 7.31088 102.202 7.84004C102.489 8.37154 102.632 8.99796 102.632 9.7193C102.632 10.434 102.488 11.057 102.201 11.5882ZM100.972 11.7236C101.458 11.2493 101.701 10.5812 101.701 9.7193C101.702 8.8574 101.46 8.18765 100.977 7.71006C100.494 7.23214 99.7887 6.99318 98.8622 6.99318H97.6027V12.435H98.8622C99.7818 12.435 100.485 12.1979 100.972 11.7236Z" fill="#105AFF"/>
<path d="M105.02 6.93316V9.34821H107.7V10.0502H105.02V12.5154H108V13.2561H104.111V6.19147H108V6.93563L105.02 6.93316Z" fill="#105AFF"/>
<path d="M50.9961 17.79V24.8248H49.2868V20.4253L47.7674 24.8248H46.2877L44.758 20.4154V24.8248H43.0486V17.79H45.138L47.0474 22.6906L48.9171 17.79H50.9961Z" fill="#105AFF"/>
<path d="M56.8049 23.532H54.1557L53.7157 24.8248H51.9163L54.5056 17.79H56.4753L59.0641 24.8248H57.2443L56.8049 23.532ZM56.3649 22.2297L55.4855 19.6236L54.5947 22.2297H56.3649Z" fill="#105AFF"/>
<path d="M61.6835 23.5121H63.963V24.8249H59.9741V17.7394H61.6835V23.5121Z" fill="#105AFF"/>
<path d="M66.3223 17.7394L68.0514 23.0711L69.7836 17.7394H71.6147L69.1556 24.8249H66.9463L64.4971 17.7394H66.3223Z" fill="#105AFF"/>
<path d="M74.2299 17.7394V24.8249H72.5205V17.7394H74.2299Z" fill="#105AFF"/>
<path d="M81.9377 24.8249H80.2278L77.3688 20.476V24.8249H75.6594V17.7394H77.3688L80.2278 22.129V17.7394H81.9377V24.8249Z" fill="#105AFF"/>
<path d="M87.7453 23.532H85.0961L84.6557 24.8248H82.8562L85.4475 17.79H87.4167L90.006 24.8248H88.1863L87.7453 23.532ZM87.3058 22.2297L86.4259 19.6236L85.5351 22.2297H87.3058Z" fill="#105AFF"/>
<path d="M95.7083 23.8629C95.5053 24.1888 95.2133 24.4497 94.867 24.6145C94.4968 24.8013 94.0484 24.8949 93.5218 24.8953C92.73 24.8953 92.0769 24.7015 91.5626 24.3138C91.0482 23.9262 90.7677 23.3851 90.7212 22.6906H92.5405C92.5665 22.9575 92.6616 23.1678 92.8255 23.3216C92.9952 23.4782 93.2197 23.5611 93.4501 23.5523C93.6701 23.5523 93.8435 23.4921 93.9702 23.3717C94.0338 23.3095 94.0836 23.2345 94.1163 23.1517C94.149 23.0688 94.1638 22.98 94.1598 22.891C94.1622 22.8079 94.148 22.7252 94.118 22.6478C94.088 22.5703 94.0428 22.4997 93.9851 22.44C93.8607 22.3134 93.713 22.2123 93.5501 22.1424C93.3768 22.0656 93.137 21.9737 92.8305 21.8665C92.4559 21.7427 92.0902 21.5935 91.7358 21.42C91.4439 21.2693 91.1933 21.0492 91.0058 20.7791C90.8026 20.4953 90.7009 20.126 90.7009 19.6713C90.7009 19.2505 90.8075 18.8867 91.0206 18.5798C91.2431 18.2654 91.5499 18.0206 91.9055 17.8738C92.282 17.7085 92.7135 17.6258 93.2002 17.6258C93.9864 17.6258 94.6113 17.813 95.0748 18.1874C95.5384 18.5618 95.7998 19.0763 95.8592 19.7308H94.0143C93.9924 19.5222 93.9027 19.3265 93.7589 19.1741C93.6223 19.0379 93.4374 18.9696 93.2041 18.9693C93.0042 18.9693 92.8425 19.0227 92.7191 19.1295C92.5957 19.2363 92.534 19.3933 92.534 19.6003C92.5322 19.6788 92.5459 19.7568 92.5742 19.8299C92.6026 19.9031 92.6451 19.9699 92.6993 20.0265C92.817 20.1486 92.958 20.2456 93.114 20.3117C93.279 20.3858 93.519 20.4794 93.8341 20.5925C94.2149 20.7163 94.5858 20.8687 94.9437 21.0484C95.2382 21.206 95.4917 21.4309 95.6836 21.7048C95.8901 21.9919 95.9934 22.3659 95.9934 22.827C95.9969 23.1922 95.8981 23.5511 95.7083 23.8629V23.8629Z" fill="#105AFF"/>
</svg>
