<svg xmlns="http://www.w3.org/2000/svg" width="93.972" height="94.074" viewBox="0 0 93.972 94.074"><defs><style>.cls-1{fill:#4f6465}</style></defs><g id="Grupo_157" data-name="Grupo 157" transform="translate(0 0)"><path id="Trazado_219" d="M130.644,351.461l-.531,4.015-2.768-.367,1.514-11.446,4.485.594a4.393,4.393,0,0,1,2.975,1.423,3.609,3.609,0,0,1,.708,2.87,3.8,3.8,0,0,1-.729,1.839,3.333,3.333,0,0,1-1.59,1.124,5.034,5.034,0,0,1-2.346.176Zm3.565-3.285q.2-1.505-1.469-1.726l-1.408-.187-.394,2.979,1.408.187Q134.013,349.65,134.208,348.176Z" class="cls-1" data-name="Trazado 219" transform="translate(-79.721 -343.663)"/><path id="Trazado_220" d="M151.31,360.51l-3.949-1.771-1.518,1.629-2.682-1.2,8.551-8.73,2.936,1.317-.831,12.192-2.712-1.216Zm.213-2.231.426-4.463-3.063,3.28Z" class="cls-1" data-name="Trazado 220" transform="translate(-87.048 -346.799)"/><path id="Trazado_221" d="M166.765,368.842l3.883,3.3-1.46,1.718-6.247-5.31,1.375-1.618,8.474-2.228L169.02,361.5l1.45-1.7,6.172,5.247-1.376,1.618Z" class="cls-1" data-name="Trazado 221" transform="translate(-96.213 -351.136)"/><path id="Trazado_222" d="M174.952,388.638a2.858,2.858,0,0,1-1.815.725,2.245,2.245,0,0,1-1.746-.962l.793-.655a.9.9,0,0,0,.562.372,1.039,1.039,0,0,0,.709-.32l.127-.1-.759-.919,1.94-1.6,1.466,1.776A4.405,4.405,0,0,1,174.952,388.638Z" class="cls-1" data-name="Trazado 222" transform="translate(-100.128 -362.896)"/><path id="Trazado_223" d="M198.828,401.4l-10.734,4.029-.982-2.615,6.712-2.52-7.584.2-.85-2.263,5.849-4.864-6.727,2.525-.982-2.615,10.734-4.029,1.2,3.2-6.381,5.727,8.551.053Z" class="cls-1" data-name="Trazado 223" transform="translate(-105.753 -364.781)"/><path id="Trazado_224" d="M201.018,423.448l-2.415.116.188,3.9-2.1.1-.188-3.9-2.561.124.212,4.388-2.235.108-.347-7.177,11.533-.558.346,7.178-2.219.107Z" class="cls-1" data-name="Trazado 224" transform="translate(-109.477 -379.286)"/><path id="Trazado_225" d="M197.706,451.969l-11.078-2.952.719-2.7,6.928,1.846-6.289-4.245.622-2.336,7.587-.564-6.943-1.85.719-2.7,11.078,2.952-.879,3.3-8.52.958,6.931,5.007Z" class="cls-1" data-name="Trazado 225" transform="translate(-107.188 -386.663)"/><path id="Trazado_226" d="M185.61,476.321a5.529,5.529,0,0,1-2.936.468,6.412,6.412,0,0,1-4.94-3.579,5.577,5.577,0,0,1-.481-2.946,6.1,6.1,0,0,1,3.453-4.779,5.574,5.574,0,0,1,2.948-.469,6.385,6.385,0,0,1,4.944,3.572,5.587,5.587,0,0,1,.474,2.942,6.132,6.132,0,0,1-3.463,4.792Zm.8-5.767a4.032,4.032,0,0,0-3.925-2.836,3.086,3.086,0,0,0-2.549,3.528,4,4,0,0,0,3.914,2.838,3.107,3.107,0,0,0,2.561-3.53Z" class="cls-1" data-name="Trazado 226" transform="translate(-102.829 -399.872)"/><path id="Trazado_227" d="M160.848,482.728l4.612,2,.51-.382-2.61-3.493,2.237-1.672,6.912,9.249-3.82,2.855a5.152,5.152,0,0,1-2.141,1.009,3.274,3.274,0,0,1-1.915-.19,3.714,3.714,0,0,1-1.508-1.227,3.352,3.352,0,0,1-.725-2.129,3.547,3.547,0,0,1,.893-2.176l-4.916-1.994Zm6.266,3.147-1.387,1.036a1.746,1.746,0,0,0-.762,1.028,1.419,1.419,0,0,0,.337,1.1,1.439,1.439,0,0,0,.965.624,1.674,1.674,0,0,0,1.21-.414l1.387-1.036Z" class="cls-1" data-name="Trazado 227" transform="translate(-94.098 -406.449)"/><path id="Trazado_228" d="M157.048,501.1l-4.965-10.425,2.521-1.2,4.965,10.425Z" class="cls-1" data-name="Trazado 228" transform="translate(-91.183 -411.219)"/><path id="Trazado_229" d="M134.394,496.7l4.218-.967.23-2.214,2.865-.657-1.561,12.12-3.136.719-6.684-10.23,2.9-.664Zm1.175,1.909,2.35,3.817.468-4.463Z" class="cls-1" data-name="Trazado 229" transform="translate(-81.102 -412.787)"/><path id="Trazado_230" d="M102.355,506.47l5.169-6.98.606-3.79,2.774.444-.606,3.79,2.733,8.243-3.161-.505-1.45-5-2.937,4.294Z" class="cls-1" data-name="Trazado 230" transform="translate(-68.143 -414.105)"/><path id="Trazado_231" d="M82.528,486.957a3.279,3.279,0,0,1,1.8-.383,4.839,4.839,0,0,1,2.134.692,5.177,5.177,0,0,1,2.31,2.41,3.43,3.43,0,0,1-.121,2.978l-2.581-1.474a1.567,1.567,0,0,0,.106-1.124,1.432,1.432,0,0,0-.7-.833,1.185,1.185,0,0,0-.883-.166,1.029,1.029,0,0,0-.659.527,1.014,1.014,0,0,0-.116.78,2.251,2.251,0,0,0,.378.771q.276.374.8.973a14.364,14.364,0,0,1,1.192,1.518,3.291,3.291,0,0,1,.517,1.5,3.405,3.405,0,0,1-1.8,3.1,3.324,3.324,0,0,1-1.826.283,5.283,5.283,0,0,1-2.035-.7,4.744,4.744,0,0,1-2.205-2.312,3.492,3.492,0,0,1,.134-2.82l2.624,1.5a1.546,1.546,0,0,0-.087.994,1.226,1.226,0,0,0,.621.74,1.166,1.166,0,0,0,.817.166.958.958,0,0,0,.643-.517.975.975,0,0,0,.111-.736,2.061,2.061,0,0,0-.358-.74q-.266-.359-.795-.98a12.914,12.914,0,0,1-1.205-1.544,3.473,3.473,0,0,1-.52-1.528,3.058,3.058,0,0,1,.467-1.839A3.185,3.185,0,0,1,82.528,486.957Z" class="cls-1" data-name="Trazado 231" transform="translate(-57.138 -409.873)"/><path id="Trazado_232" d="M59.506,479.937a5.539,5.539,0,0,1,.094-2.972,6.413,6.413,0,0,1,4.445-4.177,5.571,5.571,0,0,1,2.985.083,6.1,6.1,0,0,1,4.043,4.291,5.569,5.569,0,0,1-.095,2.984,6.383,6.383,0,0,1-4.439,4.183,5.592,5.592,0,0,1-2.979-.089,6.134,6.134,0,0,1-4.054-4.3Zm5.513,1.875a4.031,4.031,0,0,0,3.524-3.32,3.085,3.085,0,0,0-2.985-3.168,4,4,0,0,0-3.524,3.309,3.106,3.106,0,0,0,2.985,3.179Z" class="cls-1" data-name="Trazado 232" transform="translate(-48.217 -403.412)"/><path id="Trazado_233" d="M50.8,455.057a2.775,2.775,0,0,1,1.34-1.322,2.869,2.869,0,0,1,2.518-.113,4.282,4.282,0,0,1,1.977,2.194l2.325,4.844-10.41,5-2.269-4.727a4.282,4.282,0,0,1-.488-2.791,2.637,2.637,0,0,1,1.556-1.816,2.7,2.7,0,0,1,1.808-.252,2.56,2.56,0,0,1,1.446.918A2.891,2.891,0,0,1,50.8,455.057Zm.8,6.039-.792-1.649q-.629-1.311-1.748-.773t-.476,1.877l.777,1.62Zm1.426-4.616a1.216,1.216,0,0,0-.7.789,1.725,1.725,0,0,0,.186,1.2l.855,1.781,2.341-1.124-.862-1.8Q54.174,455.93,53.026,456.481Z" class="cls-1" data-name="Trazado 233" transform="translate(-41.905 -394.498)"/><path id="Trazado_234" d="M42.194,442.986l2.373-.461-.744-3.831,2.068-.4.744,3.831,2.518-.488-.837-4.313,2.2-.426,1.369,7.054-11.336,2.2L39.176,439.1l2.181-.423Z" class="cls-1" data-name="Trazado 234" transform="translate(-38.871 -386.86)"/><path id="Trazado_235" d="M50.474,421.193l-4.5,2.247-.036.636,4.354.248-.159,2.789-11.528-.658.272-4.761a5.151,5.151,0,0,1,.6-2.288,3.275,3.275,0,0,1,1.378-1.345,3.721,3.721,0,0,1,1.91-.365,3.353,3.353,0,0,1,2.1.815,3.554,3.554,0,0,1,1.092,2.082l4.688-2.481Zm-6.44,2.774.1-1.728a1.746,1.746,0,0,0-.3-1.244,1.416,1.416,0,0,0-1.062-.453,1.44,1.44,0,0,0-1.1.338,1.676,1.676,0,0,0-.46,1.192l-.1,1.729Z" class="cls-1" data-name="Trazado 235" transform="translate(-38.608 -377.959)"/><path id="Trazado_236" d="M53.391,401.13,51.906,405.2l1.732,1.4-1.008,2.761-9.318-7.906,1.1-3.022,12.22-.04-1.02,2.792Zm-2.241-.053-4.482-.107,3.49,2.823Z" class="cls-1" data-name="Trazado 236" transform="translate(-40.787 -369.017)"/><path id="Trazado_237" d="M67.049,376.91l-1.725,2.2-8.459-.707,5.573,4.38-1.725,2.2-9.079-7.134,1.725-2.2,8.51.747-5.624-4.42,1.725-2.2Z" class="cls-1" data-name="Trazado 237" transform="translate(-44.643 -355.762)"/><path id="Trazado_238" d="M68.926,355.992l-1.985,3.792-1.2-1.467,1.85-3.956Zm.731,2.418,7.3,8.944L74.8,369.121l-7.3-8.944Z" class="cls-1" data-name="Trazado 238" transform="translate(-51.18 -348.62)"/><path id="Trazado_239" d="M91.891,360.117l-3.864,1.949.308,2.2-2.624,1.324-1.388-12.141,2.873-1.449,8.941,8.33-2.653,1.338Zm-1.6-1.572L87.1,355.4l.616,4.445Z" class="cls-1" data-name="Trazado 239" transform="translate(-59.788 -347.528)"/><path id="Trazado_240" d="M108.1,361.9l.716,2.7-2.794.742-.716-2.7Z" class="cls-1" data-name="Trazado 240" transform="translate(-69.512 -352.113)"/><g id="Grupo_156" data-name="Grupo 156" transform="translate(17.4 30.506)"><path id="Trazado_241" d="M119.677,426.929c.548.314,1.223.316,1.74.688.187.134.517.257.3.623-.081.134.057.129.146.174.319.163.689.03,1.006.193.112.058.265.064.326.186.279.556.5.64,1.061.342.37-.2.817-.223,1.132-.53.178-.174.272.055.287.11.048.182.434.1.3.4a1.107,1.107,0,0,1-.484.58,3.886,3.886,0,0,1-2.924.281,1.64,1.64,0,0,0-1.1.054,2.664,2.664,0,0,1-1.788.079.85.85,0,0,1-.79-.931c0-.371-.1-.6-.512-.7a.986.986,0,0,1-.807-.974c-.021-.448-.413-.4-.662-.41-.549-.031-1.1-.324-1.657-.023-.136.073-.306-.056-.4-.15-.216-.223-.471-.14-.71-.134-.109,0-.274.053-.309.186s.107.208.195.267a1.066,1.066,0,0,1,.486.993c-.017.3.133.379.353.494a.92.92,0,0,1,.6,1.13.6.6,0,0,0,.382.669c.24.1.478.2.714.3.3.134.583.3.477.7a.95.95,0,0,1-.944.366,7.338,7.338,0,0,1-2.058-.924c-.024-.022-.072-.031-.081-.055-.258-.713-1.095-.951-1.358-1.668-.129-.35-.012-.763-.285-1.069-.366-.409-.456-1.014-1.028-1.3a.534.534,0,0,1-.166-.877c.432-.585.378-.689-.378-1.052-.244-.117-.551-.21-.551-.588,0-.328.127-.491.471-.5.531-.018,1.061-.062,1.591-.1.1-.007.238.055.266-.136.095-.638.617-.977,1.045-1.338s.32-.675.12-1.062c-.135-.261-.379-.511-.148-.845.176-.253.337-.428.712-.295.54.191.731.033.665-.518-.02-.165.025-.185.126-.248a3.173,3.173,0,0,1,.871-.3c.29-.083.594-.1.691-.491a2.09,2.09,0,0,1,1.321-.485c.115.04.239.12.318.02.1-.128-.047-.275-.112-.343a8.5,8.5,0,0,1-.921-1.648c-.106-.174-.014-.28.1-.386a5.961,5.961,0,0,1,1.218-.91c.247-.134.288.087.333.243s.058.254.281.183c.979-.311,1.467.135,1.219,1.115-.042.165-.16.355-.022.455.2.144.236-.141.357-.219.45-.292.9-.581,1.367-.85.163-.094.365-.177.331-.373a.531.531,0,0,0-.381-.412,1.052,1.052,0,0,0-.727,0,1.155,1.155,0,0,1-.9-.128c-.3-.114-.266-.469.02-.684.758-.573.757-.571-.077-.955-.149-.069-.412-.072-.391-.273a.517.517,0,0,1,.416-.443,5.955,5.955,0,0,1,.7-.174c.346-.034.774.127.83-.441a.052.052,0,0,1,.036-.033c.819-.135.61-.7.47-1.192-.1-.361.243-.3.359-.414.275-.275.346-.517.028-.727a3.109,3.109,0,0,1-.454-.378c-.163-.159-.422-.306-.3-.574s.405-.315.654-.379a1.325,1.325,0,0,1,.728.1c.7.22.937.077,1.085-.606.092-.426.458-.612.8-.791.108-.055.238-.1.235-.221,0-.189-.175-.109-.274-.111a1.038,1.038,0,0,1-.493-.2c-.306-.173-.29-.414-.011-.543a5.3,5.3,0,0,1,.9-.472.609.609,0,0,0,.271-1.066,12.472,12.472,0,0,0-1.372-1.283c-.222-.173-.236-.351,0-.545a1.078,1.078,0,0,1,1.611.385c.3.443.762.737,1.028,1.2.135.237.408.254.641.31a2.049,2.049,0,0,1,1.012.451c.217.214.665.393.234.828-.1.1-.013.247.182.241.3-.01.606-.013.909,0a.427.427,0,0,0,.4-.26c.093-.158-.043-.27-.149-.383-.515-.553-.46-.723.3-.981.306-.1.595-.248.913-.335.176-.048.347-.018.387.053.4.7,1.151.6,1.759.777a1.559,1.559,0,0,1,1.241,1.705c-.039.427-.423.469-.687.493a6.641,6.641,0,0,0-1.219.34c-.18.05-.431.144-.192.5.305.455-.267.315-.469.482a1.007,1.007,0,0,0,.89.341,1.118,1.118,0,0,1,1.011.679c.017.045.065.109.05.13-.467.65.265.447.448.573.166.113.449.144.522.332.258.669.867.45,1.337.614.686.237,1.065-.374,1.621-.459a.178.178,0,0,0,.1-.146.218.218,0,0,0-.144-.12c-.1-.022-.213.017-.3-.02-.316-.14-1,.11-.735-.671.009-.025-.015-.062-.025-.093-.28-.871.127-1.436,1.076-1.429,1.036.007,2.071.063,3.106.094a12.161,12.161,0,0,1,1.462-.014.926.926,0,0,1,.821.531.674.674,0,0,1-.381.883,2.263,2.263,0,0,0-.271.212c-.178.144-.127.283.067.293a1.462,1.462,0,0,1,.592.216c.677.333.719.8.114,1.241-.058.042-.121.078-.3.194a11.071,11.071,0,0,0,1.914-.113.776.776,0,0,1,.89.643c-.015.309-.266.439-.577.442-.886.009-1.765-.105-2.651-.123-.724-.014-1.383.282-2.17.239.2.266.24.544.378.74.207.294.611.27.931.358a7.633,7.633,0,0,1,1.657.369c.4.206.948-.022,1.424.135a1.73,1.73,0,0,0,.627.122c.211-.01.418.055.4.367-.013.248-.042.387-.348.429a2.724,2.724,0,0,0-1.158.479,4.6,4.6,0,0,1-2.263.454c-.464.049-.928-.4-1.385.038.268.237.625.148.931.227s.269.136.1.34a.929.929,0,0,1-1.049.317,7.03,7.03,0,0,0-1.353-.052,2.592,2.592,0,0,1-1.221-.142c-.143-.076-.2,0-.308.034-.86.314-1.714.542-2.463-.251-.03-.031-.091-.034-.138-.043a5.307,5.307,0,0,0-1.261.784c-.027.192.07.4.251.309.318-.161.565.123.864.051a.393.393,0,0,1,.385.257c.057.181-.1.264-.2.373a1.932,1.932,0,0,1-2.051.567,1.382,1.382,0,0,0-.3-.022c-.228,0-.532-.028-.552.253s.273.261.486.266c.034,0,.077-.012.1,0,.2.137.582.131.574.386a.724.724,0,0,1-.557.613c-1.062.356-1.48.258-2.138-.565a.384.384,0,0,0-.29-.156,3.876,3.876,0,0,0-2.045.261,1.2,1.2,0,0,1-1.7-.468c-.144-.2-.447-.172-.576-.157-.645.071-.886-.372-1.1-.8a.521.521,0,0,0-.6-.35c-.233.024-.472-.01-.706.009a.47.47,0,0,1-.508-.236c-.164-.324-.457-.3-.722-.258a.631.631,0,0,0-.415.287c-.07.141.21.108.255.241a1.532,1.532,0,0,0,1.651,1.061.846.846,0,0,1,.687.514c.106.224.213.244.416.123a.644.644,0,0,1,.975.354,1.18,1.18,0,0,0,1.149.646c.593.043.689.127.7.7a1.146,1.146,0,0,0,1.434,1.05c.188-.06.384,0,.576-.116.17-.1.318.089.386.233s.052.283-.155.391a6.164,6.164,0,0,1-1.563.648c-.559.116-.6.5-.526.909a2.256,2.256,0,0,1-.482,1.891c-.172.222-.387.487-.684.415s-.459-.366-.591-.654a1.252,1.252,0,0,1,.018-1.051.9.9,0,0,0-.27-1.106,1.729,1.729,0,0,0-1.586-.6c-.255.048-.452.125-.392.437s-.115.616-.1.931a.255.255,0,0,1-.148.244c-.267.122-.531.224-.366.607.014.034-.049.123-.1.159a1.179,1.179,0,0,1-1.352-.359,1.727,1.727,0,0,1-.239-1.128c.093-.37-.206-.562-.374-.764a3.594,3.594,0,0,1-.618-.72c-.159-.325-.482,0-.721.019-.293.018-.448.1-.659-.237-.145-.229-.6-.155-.911-.009a1.689,1.689,0,0,0-.46.272c-.119.113-.479.135-.138.484.283.29-.174.462-.354.569-.384.229-.177.326.052.412a1.454,1.454,0,0,1,1.121,1.265c.01.127.105.188.205.258C119.946,426.433,119.943,426.438,119.677,426.929Z" class="cls-1" data-name="Trazado 241" transform="translate(-89.17 -401.275)"/><path id="Trazado_242" d="M92.991,420.171a.66.66,0,0,1,.085,1.053.3.3,0,0,0,.059.481c.169.106.356.266.569.025a1.689,1.689,0,0,1,.427-.328.433.433,0,0,1,.513.018c.207.173.028.352-.054.484a6.123,6.123,0,0,1-1.372,1.465c-.264.217-.332.547-.6.748-.208.154-.337.288-.641.155-.584-.255-1.247-.023-1.855-.211-.089-.027-.15.056-.226.156.23.091.507.07.69.32-.337.229-.609.552-.939.786-.234.167-.175.221-.021.347.507.416.463.791-.1,1.126a13.483,13.483,0,0,1-1.327.465.6.6,0,0,1-.523-.188,7.7,7.7,0,0,0-.958-.812c-.144-.131-.21-.3-.452-.3-.174,0-.411-.242-.506.013a.762.762,0,0,0,.026.828c.144.173.569.293.254.624a.812.812,0,0,1-1.045.26c-.623-.312-.7-.408-.428-1.045.064-.153.088-.3-.056-.321-.262-.047-.332-.514-.716-.287a2.02,2.02,0,0,0-.5.438c.044.058.061.1.081.1.846.073.974.361.492,1.115-.184.288-.284.517.226.561.349.031.711.215.7.611a.906.906,0,0,1-.475.926,3.154,3.154,0,0,1-2.152.516c-.494-.119-.538-.315-.2-.679.128-.14.249-.292.014-.386-.357-.144-.371-.456-.472-.744s-.2-.619-.628-.341c-.219.141-.347-.05-.447-.2-.136-.2-.222-.435-.364-.63-.059-.081-.031-.329-.245-.216-.135.071-.317.1-.348.312-.079.555-.466,1.013-.441,1.624.016.389-.3.475-.686.282a1.833,1.833,0,0,1-1.084-1.138.315.315,0,0,0-.148-.192c-.647-.265-1.118-.928-1.933-.826-.278.035-.73-.453-.739-.721a.221.221,0,0,1,.234-.259,13.123,13.123,0,0,1,1.452.021c.6.078,1.247.321,1.76-.287.151-.179.444-.1.647-.187.114-.048.414.034.337-.246-.061-.223-.26-.149-.4-.079-.664.324-1.16-.014-1.622-.422-.371-.327-.339-.484.121-.615a1.209,1.209,0,0,1,1.373.19c.279.287.654.075.955-.074a4.224,4.224,0,0,0,.683-.472.675.675,0,0,1,1.1.141.651.651,0,0,0,.672.3.587.587,0,0,0,.549-.487c.1-.612.42-.75.965-.528a.269.269,0,0,0,.314-.1,14.11,14.11,0,0,1,1.82-1.323c.141-.117.3-.238.242-.457-.05-.187-.1-.39-.374-.354a.2.2,0,0,1-.166-.085c-.194-.639-.478-.2-.69-.04a2.478,2.478,0,0,1-1.629.435c-.157-.005-.258-.075-.265-.234a.228.228,0,0,1,.245-.255,2.52,2.52,0,0,0,.979-.417.816.816,0,0,0,.337-1.211c-.108-.22-.3-.523-.079-.664.392-.246.555-.887,1.184-.734.367.09.459.4.5.711.047.369.181.393.571.436.9.1,1.583-.522,2.422-.562.169-.008.505-.049.4-.406a.577.577,0,0,0-.537-.4,2.678,2.678,0,0,0-.782.112,3.637,3.637,0,0,1-2.416-.816c-.487-.3-.778-.229-1.059.289-.07.129-.13.262-.195.394a.818.818,0,0,1-.705.523c-.351.013-.525-.3-.628-.544-.173-.415-.24-.871-.429-1.289a.318.318,0,0,1,.089-.412c.22-.136.206.1.3.179a.47.47,0,0,0,.609.013c.354-.263.721-.507,1.072-.775a.628.628,0,0,1,.772-.072,1.674,1.674,0,0,0,1.7.039c.632-.306.978-.119,1.14.551.73-.289.741-.3,1.205.42a2.794,2.794,0,0,0,1.049.878c.516.287.986-.1,1.456-.293a.141.141,0,0,0,.065-.108c0-.089-.076-.093-.143-.093-.336,0-.674-.012-1.008.013-.615.047-.88-.129-.947-.715-.029-.254-.205-.287-.371-.3-.729-.073-.957-.8-1.495-1.132-.21-.129.026-.412.115-.619a1.19,1.19,0,0,0-.273-1.5c-.093-.085-.174-.107-.252-.064-.111.062.038.123.032.2-.013.178.047.368-.166.485a.476.476,0,0,1-.547,0c-.066-.046-.169-.054-.214-.112a5.016,5.016,0,0,0-2.01-1.155c-.238-.116-.4-.292-.364-.52a.539.539,0,0,1,.553-.41,9.109,9.109,0,0,1,1.16,0,.411.411,0,0,0,.467-.283c.038-.183-.168-.282-.343-.362a12.637,12.637,0,0,1-1.281-.577,1.436,1.436,0,0,1-.758-.768c-.081-.261-.3-.33-.465-.23-.705.435-1.379-.054-2.066-.038-.26.006-.276-.312-.321-.542-.026-.134.043-.24.048-.365a1.572,1.572,0,0,0-.74-1.447c-.127-.09-.37-.2-.272-.417s.327-.1.5-.12.36-.047.535-.072a1.52,1.52,0,0,1,1.159.135.624.624,0,0,0,.31.138,3.2,3.2,0,0,1,2.052,1.014,5.6,5.6,0,0,1,.531.44,2.477,2.477,0,0,0,1.851.757,7.249,7.249,0,0,1,2.527.342,4.984,4.984,0,0,0,1.646.067c.064,0,.141,0,.148-.092s.039-.171-.068-.213-.213-.078-.32-.113a.7.7,0,0,1-.459-.641c.006-.225.342-.367.633-.351a1.883,1.883,0,0,1,.93.267.3.3,0,0,0,.482-.1,1.667,1.667,0,0,1,1.293-.64.571.571,0,0,1,.619.523c.012.608.384.493.718.4a3.566,3.566,0,0,1,1.17-.152.719.719,0,0,1,.679.379.36.36,0,0,0,.524.2,18.734,18.734,0,0,1,2.549-.78.684.684,0,0,0,.28-1.043c-.5-.515-.276-1.072.581-1.479.144-.069.315-.079.466-.137.475-.181.506-.155.454.353-.029.278.157.372.4.383a1.7,1.7,0,0,0,.853-.194,1.492,1.492,0,0,1,1.845,1.094c.015.158.079.372-.109.457-.619.279-.477.877-.581,1.361-.058.273-.018.559-.334.707-.121.057-.117.151.018.205.357.141.174.392.026.477-.67.385-1.191,1.015-2.01,1.168a2.063,2.063,0,0,0-1.114.324c-.158.133-.446-.251-.684-.461-.168.457.079.931-.12,1.376-.051.114.251.155.419.145.581-.033.652.046.364.539a3.5,3.5,0,0,1-1.726,1.719c-.235.087-.478.146-.615-.2a.4.4,0,0,0-.492-.255,1.082,1.082,0,0,0-.685.442c-.055.086-.012.133.086.179a.734.734,0,0,1,.4.829c-.011.122-.063.26.108.392a.644.644,0,0,1,.068,1.05,5.39,5.39,0,0,0-.375.405.568.568,0,0,0-.124.6c.261.657-.285,1.1-.518,1.614-.478,1.06-1.4.821-2.2.611C94.168,419.823,93.63,420.175,92.991,420.171Z" class="cls-1" data-name="Trazado 242" transform="translate(-72.611 -402.386)"/><path id="Trazado_243" d="M71.495,433.7c.272.039.419-.006.567.076a.7.7,0,0,0,.586.023c.17-.073.32-.3.511-.2a1.457,1.457,0,0,1,.629.539c.116.236.216.362.453.282a.536.536,0,0,0,.427-.488,1.049,1.049,0,0,1,.156-.511c.107-.2.191-.473.492-.385a.576.576,0,0,1,.45.674,1.87,1.87,0,0,1-.52,1.186,2.035,2.035,0,0,0-.689,1.367c-.036.318-.716.9-.913.747-.363-.292-.776-.033-1.078-.229a1.707,1.707,0,0,1-.8-1.6c.105-.346-.027-.438-.266-.546-.045-.02-.1-.02-.136-.051-.165-.158-.414-.294-.314-.572C71.141,433.762,71.347,433.65,71.495,433.7Z" class="cls-1" data-name="Trazado 243" transform="translate(-71.029 -415.568)"/><path id="Trazado_244" d="M115.071,402.663c-.586-.533-.773.18-1.127.539a.885.885,0,0,1-1.5-.1.627.627,0,0,0-.628-.2c-.278.018-.445-.044-.44-.378a.631.631,0,0,0-.371-.576,7.871,7.871,0,0,0-1.681-.858c-.145-.044-.241-.087-.262-.245-.024-.178.145-.159.226-.215.41-.279.808-.031,1.217.037.668.111,1.146.657,1.825.746.43.056.85.189,1.275.286.162.037.253-.079.33-.182.377-.5,1.147-.346,1.634-.1.071.036.18.149.135.178-.456.29.381.6-.025.9A.585.585,0,0,1,115.071,402.663Z" class="cls-1" data-name="Trazado 244" transform="translate(-88.649 -400.505)"/><path id="Trazado_245" d="M151.159,440.341c.37-.039.584.087.421.477a.213.213,0,0,0,.067.291c.354.341.187.613-.107.876-.077.069-.355.09-.162.248.265.215.214.445.214.724,0,.513-.153.685-.677.6a8.276,8.276,0,0,1-1.046-.228c-.208-.065-.418-.213-.241-.486.166-.256.051-.307-.181-.411-.211-.094-.48-.151-.548-.49-.086-.428.013-.681.44-.682a1.44,1.44,0,0,0,1.293-.748C150.776,440.275,150.976,440.364,151.159,440.341Z" class="cls-1" data-name="Trazado 245" transform="translate(-107.094 -418.958)"/><path id="Trazado_246" d="M109.882,449.583a.691.691,0,0,1-.421.864.535.535,0,0,0-.251.729,2.423,2.423,0,0,1,.072.786c.005.094.083.25-.1.285a.319.319,0,0,1-.382-.161,1.79,1.79,0,0,1-.1-.976c.012-.4.036-.732-.51-.792-.217-.024-.326-.24-.23-.529.2-.6.324-1.2-.3-1.678-.1-.074-.36-.237-.21-.523a.7.7,0,0,1,.641-.453.512.512,0,0,1,.516.418,2.758,2.758,0,0,0,.9,1.147C109.792,448.945,110,449.2,109.882,449.583Z" class="cls-1" data-name="Trazado 246" transform="translate(-87.884 -422.109)"/><path id="Trazado_247" d="M111.805,458.5c.044.507-.393.684-.68.957a3.488,3.488,0,0,1-.415.243c-.225.157-.421.049-.385-.207a.561.561,0,0,0-.316-.691c-.245-.126-.306-.354-.037-.553.284-.211.165-.693.606-.824.326-.1.608-.4.773.2.062.225.381.359.451.628A1.019,1.019,0,0,1,111.805,458.5Z" class="cls-1" data-name="Trazado 247" transform="translate(-88.99 -426.802)"/><path id="Trazado_248" d="M113,461.271c-.03-.286.028-.456.34-.45a.5.5,0,0,1,.528.424.468.468,0,0,1-.485.456C113.186,461.688,112.9,461.575,113,461.271Z" class="cls-1" data-name="Trazado 248" transform="translate(-90.466 -428.45)"/></g></g></svg>