<svg xmlns="http://www.w3.org/2000/svg" width="20.841" height="20.822" viewBox="0 0 20.841 20.822">
  <defs>
    <style>
      .cls-1 {
        fill: #ff6b00;
      }
    </style>
  </defs>
  <path id="Trazado_251" data-name="Trazado 251" class="cls-1" d="M939.1-165.777a37.2,37.2,0,0,0,.849,4.315,37.311,37.311,0,0,0,1.342,4.161h-8.278a39.342,39.342,0,0,0,1.34-4.162,39.369,39.369,0,0,0,.873-4.313,35.885,35.885,0,0,0-4.308.828,35.908,35.908,0,0,0-4.176,1.348q0-4.13,0-8.26a39.532,39.532,0,0,0,4.157,1.337,39.4,39.4,0,0,0,4.326.876,37.507,37.507,0,0,0-.859-4.309,37.394,37.394,0,0,0-1.354-4.166h8.276a35.836,35.836,0,0,0-1.348,4.145,35.915,35.915,0,0,0-.841,4.33,38.728,38.728,0,0,0,4.31-.874,38.724,38.724,0,0,0,4.173-1.354v8.275a36.732,36.732,0,0,0-4.159-1.337A36.725,36.725,0,0,0,939.1-165.777Z" transform="translate(-926.742 178.123)"/>
</svg>
