<svg xmlns="http://www.w3.org/2000/svg" width="336.606" height="53.397" viewBox="0 0 336.606 53.397"><defs><style>.cls-1{font-size:15px;font-family:Poppins-Regular,Poppins;letter-spacing:.016em}.cls-2{fill:#101820}</style></defs><g id="Group_230" data-name="Group 230" transform="translate(-1343 -48.603)"><text id="Dedicado_a_todos_los_veteranos_y_caídos_de_la_Guerra_de_Malvinas" class="cls-1" data-name="Dedicado a todos los veteranos y caídos de la Guerra de Malvinas" transform="translate(1603 67)"><tspan x="-248.28" y="0">Dedicado a todos los veteranos </tspan><tspan x="-259.98" y="27">y caídos de la Guerra de Malvinas</tspan></text><g id="Group_157" data-name="Group 157" transform="translate(1546.267 -8507.396)"><path id="Path_219" d="M129.217,348.089l-.3,2.279-1.571-.208.859-6.5,2.545.337a2.493,2.493,0,0,1,1.689.808,2.048,2.048,0,0,1,.4,1.629,2.154,2.154,0,0,1-.414,1.044,1.892,1.892,0,0,1-.9.638,2.858,2.858,0,0,1-1.332.1Zm2.023-1.865q.113-.854-.834-.98l-.8-.106-.224,1.691.8.106Q131.129,347.061,131.24,346.225Z" class="cls-2" data-name="Path 219" transform="translate(-20.313 8212.337)"/><path id="Path_220" d="M147.786,356.153l-2.242-1.005-.861.925-1.523-.683,4.854-4.955,1.666.747-.472,6.92-1.54-.69Zm.121-1.266.242-2.533-1.739,1.862Z" class="cls-2" data-name="Path 220" transform="translate(-31.311 8207.629)"/><path id="Path_221" d="M165.111,364.93l2.2,1.873-.829.975-3.546-3.014.781-.918,4.81-1.264-2.14-1.819.823-.967,3.5,2.978-.781.918Z" class="cls-2" data-name="Path 221" transform="translate(-45.066 8201.12)"/><path id="Path_222" d="M173.412,387.14a1.622,1.622,0,0,1-1.03.412,1.274,1.274,0,0,1-.991-.546l.45-.372a.513.513,0,0,0,.319.211.59.59,0,0,0,.4-.182l.072-.059-.431-.522,1.1-.909.832,1.008A2.5,2.5,0,0,1,173.412,387.14Z" class="cls-2" data-name="Path 222" transform="translate(-50.942 8183.471)"/><path id="Path_223" d="M192.213,396.145l-6.092,2.287-.557-1.484,3.81-1.43-4.3.111-.482-1.284,3.32-2.761-3.818,1.433-.557-1.484,6.092-2.287.681,1.814-3.622,3.251,4.853.03Z" class="cls-2" data-name="Path 223" transform="translate(-59.384 8180.641)"/><path id="Path_224" d="M196.933,422.2l-1.371.066.107,2.213-1.194.058-.107-2.213-1.454.07.12,2.491-1.268.061-.2-4.074,6.546-.316.2,4.074-1.259.061Z" class="cls-2" data-name="Path 224" transform="translate(-64.973 8158.871)"/><path id="Path_225" d="M192.916,445.268l-6.288-1.675.408-1.532,3.932,1.048L187.4,440.7l.353-1.326,4.306-.32L188.117,438l.408-1.532,6.288,1.675-.5,1.872-4.836.544,3.934,2.842Z" class="cls-2" data-name="Path 225" transform="translate(-61.537 8147.8)"/><path id="Path_226" d="M181.982,471.418a3.139,3.139,0,0,1-1.667.265,3.639,3.639,0,0,1-2.8-2.032,3.165,3.165,0,0,1-.273-1.672,3.464,3.464,0,0,1,1.96-2.712,3.163,3.163,0,0,1,1.673-.266,3.624,3.624,0,0,1,2.807,2.028,3.171,3.171,0,0,1,.269,1.67,3.481,3.481,0,0,1-1.965,2.72Zm.456-3.273a2.289,2.289,0,0,0-2.228-1.61,1.751,1.751,0,0,0-1.447,2,2.271,2.271,0,0,0,2.222,1.611,1.763,1.763,0,0,0,1.453-2Z" class="cls-2" data-name="Path 226" transform="translate(-54.996 8127.975)"/><path id="Path_227" d="M159.779,481.193l2.618,1.134.289-.217-1.481-1.983,1.27-.949,3.923,5.25-2.168,1.62a2.923,2.923,0,0,1-1.215.573,1.858,1.858,0,0,1-1.087-.108,2.108,2.108,0,0,1-.856-.7,1.9,1.9,0,0,1-.412-1.208,2.014,2.014,0,0,1,.507-1.235l-2.79-1.132Zm3.557,1.786-.787.588a.991.991,0,0,0-.432.583.805.805,0,0,0,.191.627.817.817,0,0,0,.548.354.95.95,0,0,0,.687-.235l.787-.588Z" class="cls-2" data-name="Path 227" transform="translate(-41.892 8118.103)"/><path id="Path_228" d="M154.9,496.071l-2.818-5.917,1.431-.682,2.818,5.917Z" class="cls-2" data-name="Path 228" transform="translate(-37.516 8110.945)"/><path id="Path_229" d="M132.634,495.037l2.394-.549.13-1.257,1.626-.373-.886,6.879-1.78.408-3.794-5.806,1.645-.377Zm.667,1.084,1.334,2.167.266-2.534Z" class="cls-2" data-name="Path 229" transform="translate(-22.386 8108.59)"/><path id="Path_230" d="M102.355,501.814l2.934-3.962.344-2.151,1.574.252-.344,2.151,1.551,4.679-1.794-.287-.823-2.835-1.667,2.437Z" class="cls-2" data-name="Path 230" transform="translate(-2.936 8106.613)"/><path id="Path_231" d="M80.83,486.789a1.861,1.861,0,0,1,1.021-.217,2.746,2.746,0,0,1,1.211.393,2.938,2.938,0,0,1,1.311,1.368,1.947,1.947,0,0,1-.069,1.69l-1.465-.836a.89.89,0,0,0,.06-.638.813.813,0,0,0-.4-.472.672.672,0,0,0-.5-.094.584.584,0,0,0-.374.3.575.575,0,0,0-.066.443,1.278,1.278,0,0,0,.214.437q.157.212.454.552a8.167,8.167,0,0,1,.677.861,1.869,1.869,0,0,1,.294.851,1.933,1.933,0,0,1-1.021,1.76,1.887,1.887,0,0,1-1.037.161,3,3,0,0,1-1.155-.4,2.693,2.693,0,0,1-1.252-1.313,1.982,1.982,0,0,1,.076-1.6l1.489.851a.878.878,0,0,0-.05.564.7.7,0,0,0,.352.42.662.662,0,0,0,.464.094.544.544,0,0,0,.365-.293.554.554,0,0,0,.063-.418,1.169,1.169,0,0,0-.2-.42q-.151-.2-.451-.557a7.339,7.339,0,0,1-.684-.876,1.971,1.971,0,0,1-.295-.868,1.735,1.735,0,0,1,.265-1.044A1.808,1.808,0,0,1,80.83,486.789Z" class="cls-2" data-name="Path 231" transform="translate(13.581 8112.964)"/><path id="Path_232" d="M59.437,476.775a3.144,3.144,0,0,1,.054-1.687,3.64,3.64,0,0,1,2.523-2.371,3.162,3.162,0,0,1,1.694.047A3.461,3.461,0,0,1,66,475.2a3.161,3.161,0,0,1-.054,1.693,3.623,3.623,0,0,1-2.52,2.374,3.174,3.174,0,0,1-1.691-.05,3.482,3.482,0,0,1-2.3-2.443Zm3.129,1.064a2.288,2.288,0,0,0,2-1.885,1.751,1.751,0,0,0-1.694-1.8,2.271,2.271,0,0,0-2,1.878,1.763,1.763,0,0,0,1.694,1.8Z" class="cls-2" data-name="Path 232" transform="translate(26.971 8122.661)"/><path id="Path_233" d="M48.606,454.333a1.575,1.575,0,0,1,.761-.751,1.629,1.629,0,0,1,1.429-.064,2.431,2.431,0,0,1,1.122,1.245l1.32,2.75-5.909,2.836-1.288-2.683a2.431,2.431,0,0,1-.277-1.584,1.5,1.5,0,0,1,.883-1.031,1.53,1.53,0,0,1,1.026-.143,1.453,1.453,0,0,1,.821.521A1.641,1.641,0,0,1,48.606,454.333Zm.453,3.428-.449-.936q-.357-.744-.992-.439t-.27,1.065l.441.919Zm.809-2.62a.69.69,0,0,0-.4.448.979.979,0,0,0,.105.68l.485,1.011,1.329-.638-.489-1.019Q50.52,454.828,49.868,455.141Z" class="cls-2" data-name="Path 233" transform="translate(36.444 8136.041)"/><path id="Path_234" d="M40.889,440.353l1.347-.261-.422-2.175,1.174-.228.422,2.175,1.429-.277-.475-2.448,1.247-.242.777,4-6.434,1.249-.777-4,1.238-.24Z" class="cls-2" data-name="Path 234" transform="translate(40.997 8147.504)"/><path id="Path_235" d="M45.343,419.677l-2.552,1.275-.021.361,2.471.141-.09,1.583-6.543-.373.154-2.7a2.924,2.924,0,0,1,.343-1.3,1.859,1.859,0,0,1,.782-.763,2.111,2.111,0,0,1,1.084-.207,1.9,1.9,0,0,1,1.19.462,2.017,2.017,0,0,1,.62,1.182l2.661-1.408Zm-3.655,1.574.056-.981a.991.991,0,0,0-.168-.706.8.8,0,0,0-.6-.257.817.817,0,0,0-.624.192.952.952,0,0,0-.261.677l-.056.981Z" class="cls-2" data-name="Path 235" transform="translate(41.392 8160.863)"/><path id="Path_236" d="M49.033,399.944l-.843,2.308.983.793-.572,1.567-5.289-4.488.627-1.715,6.936-.023-.579,1.585Zm-1.272-.03-2.544-.061,1.981,1.6Z" class="cls-2" data-name="Path 236" transform="translate(38.121 8174.284)"/><path id="Path_237" d="M60.384,373.825l-.979,1.246-4.8-.4,3.163,2.486-.979,1.246-5.153-4.049.979-1.246,4.83.424-3.192-2.509.979-1.246Z" class="cls-2" data-name="Path 237" transform="translate(32.334 8194.179)"/><path id="Path_238" d="M67.55,355.287l-1.127,2.152-.68-.833,1.05-2.246Zm.415,1.373,4.145,5.077-1.228,1-4.145-5.077Z" class="cls-2" data-name="Path 238" transform="translate(22.523 8204.897)"/><path id="Path_239" d="M88.618,356.609l-2.193,1.106.175,1.251-1.49.751-.788-6.891,1.631-.823,5.075,4.728-1.506.76Zm-.907-.892L85.9,353.933l.349,2.523Z" class="cls-2" data-name="Path 239" transform="translate(9.604 8206.536)"/><path id="Path_240" d="M106.9,361.9l.407,1.532-1.586.421-.407-1.532Z" class="cls-2" data-name="Path 240" transform="translate(-4.991 8199.654)"/><g id="Group_156" data-name="Group 156" transform="translate(89.876 8573.315)"><path id="Path_241" d="M115.573,416.222c.311.178.694.179.988.391.106.076.293.146.168.354-.046.076.032.073.083.1.181.093.391.017.571.11.064.033.15.037.185.105.158.316.282.363.6.194.21-.111.464-.126.642-.3.1-.1.154.031.163.062.027.1.246.055.169.227a.629.629,0,0,1-.274.329,2.206,2.206,0,0,1-1.66.16.931.931,0,0,0-.627.031,1.512,1.512,0,0,1-1.015.045.483.483,0,0,1-.448-.528c0-.211-.059-.341-.291-.4a.559.559,0,0,1-.458-.553c-.012-.254-.234-.225-.376-.232-.311-.017-.622-.184-.941-.013-.077.041-.174-.032-.225-.085-.122-.126-.267-.08-.4-.076-.062,0-.155.03-.175.106s.061.118.111.151a.6.6,0,0,1,.276.564c-.01.168.076.215.2.281a.522.522,0,0,1,.341.641.339.339,0,0,0,.217.38c.136.054.271.113.405.172.172.076.331.17.271.4a.539.539,0,0,1-.536.208,4.165,4.165,0,0,1-1.168-.524c-.014-.012-.041-.017-.046-.031-.147-.4-.621-.54-.771-.947-.073-.2-.007-.433-.162-.607-.208-.232-.259-.575-.583-.736a.3.3,0,0,1-.094-.5c.245-.332.215-.391-.214-.6-.139-.066-.313-.119-.313-.334,0-.186.072-.279.267-.285.3-.01.6-.035.9-.056.059,0,.135.031.151-.077.054-.362.35-.555.593-.759s.182-.383.068-.6c-.077-.148-.215-.29-.084-.479.1-.144.191-.243.4-.167.306.108.415.019.378-.294-.011-.094.014-.105.072-.141a1.8,1.8,0,0,1,.494-.168c.164-.047.337-.059.392-.279a1.187,1.187,0,0,1,.75-.275c.065.023.136.068.18.012.058-.073-.027-.156-.063-.195a4.821,4.821,0,0,1-.523-.935c-.06-.1-.008-.159.057-.219a3.384,3.384,0,0,1,.691-.517c.14-.076.164.05.189.138s.033.144.16.1c.556-.177.833.076.692.633-.024.094-.091.2-.012.258.113.082.134-.08.2-.125.255-.166.512-.33.776-.483.092-.054.207-.1.188-.212a.3.3,0,0,0-.216-.234.6.6,0,0,0-.413,0,.655.655,0,0,1-.508-.072c-.168-.065-.151-.266.011-.388.43-.325.43-.324-.044-.542-.085-.039-.234-.041-.222-.155a.294.294,0,0,1,.236-.251,3.386,3.386,0,0,1,.4-.1c.2-.019.439.072.471-.25,0-.007.013-.017.021-.019.465-.076.346-.4.267-.677-.058-.205.138-.169.2-.235.156-.156.2-.294.016-.413a1.762,1.762,0,0,1-.258-.215c-.092-.09-.24-.173-.173-.326s.23-.179.371-.215a.752.752,0,0,1,.413.055c.395.125.532.044.616-.344.052-.242.26-.347.457-.449.062-.031.135-.055.133-.125,0-.107-.1-.062-.155-.063a.589.589,0,0,1-.28-.115c-.174-.1-.164-.235-.006-.308a3.013,3.013,0,0,1,.514-.268.346.346,0,0,0,.154-.605,7.073,7.073,0,0,0-.779-.728c-.126-.1-.134-.2,0-.309a.612.612,0,0,1,.914.219c.171.252.432.418.584.684.077.134.232.144.364.176a1.163,1.163,0,0,1,.574.256c.123.122.377.223.133.47-.055.056-.008.14.1.137.172-.005.344-.008.516,0a.242.242,0,0,0,.225-.147c.053-.09-.025-.153-.084-.217-.292-.314-.261-.411.17-.557.174-.059.338-.141.518-.19.1-.027.2-.01.22.03.226.394.653.339,1,.441a.885.885,0,0,1,.7.968c-.022.242-.24.266-.39.28a3.769,3.769,0,0,0-.692.193c-.1.029-.245.082-.109.284.173.258-.152.179-.266.274a.571.571,0,0,0,.505.194.635.635,0,0,1,.574.385c.009.025.037.062.029.074-.265.369.15.254.254.325s.255.082.3.189c.147.38.492.256.759.348.39.135.6-.212.92-.26a.1.1,0,0,0,.056-.083.124.124,0,0,0-.082-.068c-.055-.013-.121.01-.169-.012-.179-.079-.569.062-.417-.381,0-.014-.008-.035-.014-.053-.159-.494.072-.815.61-.811.588,0,1.176.036,1.763.053a6.914,6.914,0,0,1,.83-.008.526.526,0,0,1,.466.3.382.382,0,0,1-.216.5,1.289,1.289,0,0,0-.154.121c-.1.082-.072.161.038.166a.83.83,0,0,1,.336.122c.384.189.408.453.065.7-.033.024-.069.044-.171.11a6.287,6.287,0,0,0,1.086-.064.441.441,0,0,1,.505.365c-.009.175-.151.249-.328.251-.5.005-1-.06-1.5-.07-.411-.008-.785.16-1.232.136.115.151.136.309.214.42.118.167.347.154.529.2a4.33,4.33,0,0,1,.94.21c.229.117.538-.013.808.076a.982.982,0,0,0,.356.069c.12-.005.237.031.228.208-.007.141-.024.22-.2.243a1.547,1.547,0,0,0-.657.272,2.611,2.611,0,0,1-1.285.258c-.263.028-.527-.224-.786.022.152.134.355.084.529.129s.153.077.058.193a.527.527,0,0,1-.6.18,3.993,3.993,0,0,0-.768-.03,1.471,1.471,0,0,1-.693-.081c-.081-.043-.115,0-.175.019-.488.178-.973.307-1.4-.143-.017-.018-.051-.02-.079-.024a3.013,3.013,0,0,0-.716.445c-.015.109.04.228.142.175.18-.091.321.07.49.029a.223.223,0,0,1,.218.146c.032.1-.059.15-.114.212a1.1,1.1,0,0,1-1.164.322.785.785,0,0,0-.17-.012c-.129,0-.3-.016-.313.143s.155.148.276.151c.019,0,.044-.007.056,0,.111.078.331.075.326.219a.411.411,0,0,1-.316.348c-.6.2-.84.147-1.214-.32a.218.218,0,0,0-.165-.088,2.2,2.2,0,0,0-1.161.148.682.682,0,0,1-.964-.266c-.082-.113-.254-.1-.327-.089-.366.04-.5-.211-.624-.453a.3.3,0,0,0-.341-.2c-.132.014-.268-.005-.4.005a.267.267,0,0,1-.288-.134c-.093-.184-.26-.171-.41-.147a.358.358,0,0,0-.235.163c-.04.08.119.061.145.137a.87.87,0,0,0,.937.6.481.481,0,0,1,.39.292c.06.127.121.138.236.07a.366.366,0,0,1,.553.2.67.67,0,0,0,.652.367c.337.025.391.072.4.4a.65.65,0,0,0,.814.6c.107-.034.218,0,.327-.066s.181.05.219.133.029.161-.088.222a3.5,3.5,0,0,1-.887.368c-.317.066-.343.286-.3.516a1.28,1.28,0,0,1-.274,1.074c-.1.126-.22.276-.388.236s-.261-.208-.336-.371a.711.711,0,0,1,.01-.6.511.511,0,0,0-.153-.628.981.981,0,0,0-.9-.341c-.145.027-.256.071-.223.248s-.065.35-.058.528a.145.145,0,0,1-.084.138c-.151.069-.3.127-.208.345.008.019-.028.07-.055.09a.669.669,0,0,1-.767-.2.98.98,0,0,1-.136-.64c.053-.21-.117-.319-.212-.433a2.039,2.039,0,0,1-.351-.409c-.09-.184-.274,0-.409.011-.166.01-.254.055-.374-.134-.083-.13-.341-.088-.517,0a.96.96,0,0,0-.261.154c-.067.064-.272.077-.079.275.161.164-.1.262-.2.323-.218.13-.1.185.029.234a.825.825,0,0,1,.636.718c.006.072.06.107.116.147C115.725,415.94,115.723,415.943,115.573,416.222Z" class="cls-2" data-name="Path 241" transform="translate(-98.256 -401.66)"/><path id="Path_242" d="M84.971,413.423a.375.375,0,0,1,.048.6.173.173,0,0,0,.034.273c.1.06.2.151.323.014a.958.958,0,0,1,.242-.186.246.246,0,0,1,.291.01c.118.1.016.2-.03.275a3.476,3.476,0,0,1-.779.832c-.15.123-.189.311-.342.424-.118.087-.191.164-.364.088-.332-.145-.708-.013-1.053-.12-.05-.016-.085.032-.128.088.13.052.288.04.392.182-.191.13-.346.313-.533.446-.133.095-.1.126-.012.2.288.236.263.449-.055.639a7.656,7.656,0,0,1-.753.264.339.339,0,0,1-.3-.107,4.371,4.371,0,0,0-.544-.461c-.082-.075-.119-.169-.257-.169-.1,0-.233-.137-.287.007a.432.432,0,0,0,.015.47c.082.1.323.166.144.354a.461.461,0,0,1-.593.148c-.353-.177-.4-.232-.243-.593.037-.087.05-.168-.032-.182-.149-.026-.188-.292-.407-.163a1.146,1.146,0,0,0-.281.249c.025.033.034.057.046.059.48.041.553.2.279.633-.1.164-.161.293.129.319.2.017.4.122.394.347a.514.514,0,0,1-.27.526,1.79,1.79,0,0,1-1.221.293c-.28-.068-.305-.179-.116-.385.073-.079.141-.166.008-.219-.2-.082-.211-.259-.268-.422s-.111-.352-.357-.194c-.124.08-.2-.028-.253-.111-.077-.113-.126-.247-.207-.357-.034-.046-.018-.187-.139-.123-.077.04-.18.054-.2.177-.045.315-.264.575-.25.922.009.221-.171.27-.39.16a1.04,1.04,0,0,1-.615-.646.179.179,0,0,0-.084-.109c-.367-.15-.635-.527-1.1-.469-.158.02-.415-.257-.419-.409a.125.125,0,0,1,.133-.147,7.448,7.448,0,0,1,.824.012c.341.044.708.182,1-.163.086-.1.252-.057.367-.106.065-.027.235.019.191-.14-.035-.126-.147-.085-.228-.045-.377.184-.659-.008-.921-.239-.21-.186-.193-.275.069-.349a.686.686,0,0,1,.779.108c.158.163.371.043.542-.042a2.4,2.4,0,0,0,.388-.268.383.383,0,0,1,.627.08.37.37,0,0,0,.381.172.333.333,0,0,0,.312-.276c.059-.347.239-.426.548-.3a.153.153,0,0,0,.178-.055,8.01,8.01,0,0,1,1.033-.751c.08-.066.171-.135.137-.259-.028-.106-.054-.221-.212-.2a.111.111,0,0,1-.094-.048c-.11-.362-.271-.112-.391-.023a1.407,1.407,0,0,1-.925.247c-.089,0-.147-.042-.15-.133a.13.13,0,0,1,.139-.145,1.43,1.43,0,0,0,.556-.237.463.463,0,0,0,.191-.687c-.061-.125-.172-.3-.045-.377.222-.14.315-.5.672-.416.208.051.26.227.283.4.027.21.1.223.324.248.513.058.9-.3,1.374-.319.1,0,.287-.028.227-.23a.327.327,0,0,0-.3-.228,1.519,1.519,0,0,0-.444.063,2.064,2.064,0,0,1-1.371-.463c-.277-.171-.441-.13-.6.164-.04.073-.074.149-.111.224a.464.464,0,0,1-.4.3c-.2.007-.3-.168-.357-.309-.1-.236-.136-.494-.244-.731a.181.181,0,0,1,.051-.234c.125-.077.117.057.173.1a.267.267,0,0,0,.345.008c.2-.149.409-.288.608-.44a.357.357,0,0,1,.438-.041.95.95,0,0,0,.967.022c.359-.173.555-.068.647.313.414-.164.421-.168.684.238a1.586,1.586,0,0,0,.6.5c.293.163.56-.059.826-.167a.08.08,0,0,0,.037-.062c0-.05-.043-.053-.081-.053-.191,0-.383-.007-.572.008-.349.027-.5-.073-.538-.406-.016-.144-.116-.163-.21-.172-.414-.041-.543-.455-.848-.643-.119-.073.015-.234.066-.352a.676.676,0,0,0-.155-.85c-.053-.048-.1-.061-.143-.036-.063.035.022.07.018.112-.007.1.027.209-.094.275a.27.27,0,0,1-.31,0c-.037-.026-.1-.031-.122-.063a2.846,2.846,0,0,0-1.141-.656c-.135-.066-.225-.166-.207-.3a.306.306,0,0,1,.314-.232,5.166,5.166,0,0,1,.659,0,.233.233,0,0,0,.265-.161c.021-.1-.1-.16-.195-.205a7.176,7.176,0,0,1-.727-.328.815.815,0,0,1-.43-.436c-.046-.148-.172-.187-.264-.13-.4.247-.783-.031-1.173-.022-.148,0-.157-.177-.182-.308-.015-.076.024-.136.027-.207a.893.893,0,0,0-.42-.822c-.072-.051-.21-.113-.154-.237s.186-.059.285-.068.2-.026.3-.041a.863.863,0,0,1,.658.077.355.355,0,0,0,.176.078,1.817,1.817,0,0,1,1.165.576,3.174,3.174,0,0,1,.3.25,1.406,1.406,0,0,0,1.051.43,4.114,4.114,0,0,1,1.434.194,2.829,2.829,0,0,0,.934.038c.036,0,.08,0,.084-.052s.022-.1-.039-.121-.121-.044-.182-.064a.4.4,0,0,1-.261-.364c0-.128.194-.208.359-.2a1.069,1.069,0,0,1,.528.151.172.172,0,0,0,.274-.056.946.946,0,0,1,.734-.363.324.324,0,0,1,.352.3c.007.345.218.28.407.23a2.025,2.025,0,0,1,.664-.087.408.408,0,0,1,.386.215.2.2,0,0,0,.3.116,10.623,10.623,0,0,1,1.447-.443.388.388,0,0,0,.159-.592c-.285-.292-.157-.609.33-.84.082-.039.179-.045.265-.078.27-.1.287-.088.257.2-.016.158.089.211.224.217a.967.967,0,0,0,.484-.11.847.847,0,0,1,1.047.621c.008.09.045.211-.062.26-.352.158-.271.5-.33.772-.033.155-.01.317-.189.4-.069.032-.066.086.01.116.2.08.1.223.015.271-.38.219-.676.576-1.141.663a1.171,1.171,0,0,0-.632.184c-.09.076-.253-.143-.388-.261-.1.259.045.528-.068.781-.029.065.143.088.238.083.33-.019.37.026.207.306a1.987,1.987,0,0,1-.98.975c-.133.049-.271.083-.349-.111a.228.228,0,0,0-.279-.145.614.614,0,0,0-.389.251c-.031.049-.007.075.049.1a.417.417,0,0,1,.227.471c-.006.069-.036.148.062.222a.366.366,0,0,1,.039.6,3.06,3.06,0,0,0-.213.23.322.322,0,0,0-.07.342c.148.373-.162.623-.294.916-.271.6-.8.466-1.25.347C85.639,413.226,85.334,413.425,84.971,413.423Z" class="cls-2" data-name="Path 242" transform="translate(-73.403 -403.329)"/><path id="Path_243" d="M71.293,433.4c.154.022.238,0,.322.043a.4.4,0,0,0,.333.013c.1-.041.182-.173.29-.115a.827.827,0,0,1,.357.306c.066.134.122.205.257.16a.3.3,0,0,0,.242-.277.6.6,0,0,1,.089-.29c.061-.112.108-.269.279-.219a.327.327,0,0,1,.255.383,1.062,1.062,0,0,1-.295.673,1.155,1.155,0,0,0-.391.776c-.02.18-.407.513-.518.424-.206-.166-.44-.019-.612-.13a.969.969,0,0,1-.453-.908c.06-.2-.015-.249-.151-.31-.025-.011-.059-.012-.077-.029-.094-.09-.235-.167-.178-.325C71.093,433.44,71.209,433.376,71.293,433.4Z" class="cls-2" data-name="Path 243" transform="translate(-71.029 -423.113)"/><path id="Path_244" d="M112.471,401.73c-.333-.3-.439.1-.639.306a.5.5,0,0,1-.852-.055.356.356,0,0,0-.356-.113c-.158.01-.253-.025-.249-.215a.358.358,0,0,0-.21-.327,4.467,4.467,0,0,0-.954-.487c-.083-.025-.137-.049-.149-.139s.082-.09.128-.122c.233-.158.459-.018.691.021.379.063.65.373,1.036.423.244.032.483.107.724.162.092.021.143-.045.187-.1.214-.284.651-.2.927-.055.04.02.1.084.076.1-.259.165.216.341-.014.51A.332.332,0,0,1,112.471,401.73Z" class="cls-2" data-name="Path 244" transform="translate(-97.474 -400.505)"/><path id="Path_245" d="M150.17,440.338c.21-.022.331.049.239.271a.121.121,0,0,0,.038.165c.2.193.106.348-.061.5-.044.039-.2.051-.092.141.15.122.122.253.122.411,0,.291-.087.389-.384.338a4.691,4.691,0,0,1-.593-.13c-.118-.037-.237-.121-.137-.276s.029-.174-.1-.233-.273-.086-.311-.278c-.049-.243.008-.387.25-.387a.818.818,0,0,0,.734-.425C149.952,440.3,150.066,440.351,150.17,440.338Z" class="cls-2" data-name="Path 245" transform="translate(-125.158 -428.201)"/><path id="Path_246" d="M108.812,448.524a.392.392,0,0,1-.239.49.3.3,0,0,0-.142.414,1.375,1.375,0,0,1,.041.446c0,.054.047.142-.055.162a.181.181,0,0,1-.217-.092,1.016,1.016,0,0,1-.056-.554c.007-.225.02-.415-.29-.449-.123-.014-.185-.136-.13-.3.114-.34.184-.678-.172-.952-.055-.042-.2-.135-.119-.3a.4.4,0,0,1,.364-.257.291.291,0,0,1,.293.237,1.566,1.566,0,0,0,.514.651C108.761,448.162,108.881,448.307,108.812,448.524Z" class="cls-2" data-name="Path 246" transform="translate(-96.326 -432.929)"/><path id="Path_247" d="M110.937,457.968c.025.288-.223.388-.386.543a1.982,1.982,0,0,1-.235.138c-.128.089-.239.028-.219-.117a.318.318,0,0,0-.179-.392c-.139-.072-.174-.2-.021-.314s.094-.393.344-.468c.185-.055.345-.23.439.111.035.128.216.2.256.357A.578.578,0,0,1,110.937,457.968Z" class="cls-2" data-name="Path 247" transform="translate(-97.987 -439.974)"/><path id="Path_248" d="M112.991,461.076c-.017-.163.016-.259.193-.255a.281.281,0,0,1,.3.241.266.266,0,0,1-.275.259C113.1,461.313,112.936,461.249,112.991,461.076Z" class="cls-2" data-name="Path 248" transform="translate(-100.201 -442.447)"/></g></g></g></svg>