<svg xmlns="http://www.w3.org/2000/svg" id="b8d84368-4604-4b7f-9801-3b12fe6a8a8b" data-name="Layer 1" viewBox="0 0 707.65 200.76"><defs><style>.b98cc921-d756-4aaa-aab5-1d7addf605c6{fill:#105aff}</style></defs><path d="M432,57.42q0-8.19-9.33-8.19h-8V65.6h8Q432,65.6,432,57.42Z" class="b98cc921-d756-4aaa-aab5-1d7addf605c6"/><path d="M568.09,49.29H560.5V82h7.59q8.29,0,12.7-4.28t4.39-12q0-7.77-4.36-12.07T568.09,49.29Z" class="b98cc921-d756-4aaa-aab5-1d7addf605c6"/><polygon points="487.84 140.82 498.49 140.82 493.19 125.16 487.84 140.82" class="b98cc921-d756-4aaa-aab5-1d7addf605c6"/><polygon points="301.51 140.82 312.17 140.82 306.87 125.16 301.51 140.82" class="b98cc921-d756-4aaa-aab5-1d7addf605c6"/><path d="M371.68,80.26a15.22,15.22,0,0,0,7.85,2,15,15,0,0,0,7.8-2,14.17,14.17,0,0,0,5.42-5.81,18.73,18.73,0,0,0,1.95-8.76,18.93,18.93,0,0,0-1.95-8.82,14.09,14.09,0,0,0-5.42-5.78,16.24,16.24,0,0,0-15.65,0,14,14,0,0,0-5.42,5.78,18.81,18.81,0,0,0-2,8.82,18.82,18.82,0,0,0,2,8.79A13.86,13.86,0,0,0,371.68,80.26Z" class="b98cc921-d756-4aaa-aab5-1d7addf605c6"/><polygon points="469.36 72.83 484.89 72.83 477.12 51.4 469.36 72.83" class="b98cc921-d756-4aaa-aab5-1d7addf605c6"/><path d="M607.27,0H100.38A100.38,100.38,0,0,0,0,100.38V200.76H607.27A100.38,100.38,0,1,0,607.27,0ZM445.81,44.47h5.48V86.91h-5.48Zm-122.09,0h29.44v4.46h-12v38H335.7v-38h-12Zm-32.11,4.76a10.49,10.49,0,0,1,4.57-3.92,16.57,16.57,0,0,1,7-1.38q6.27,0,9.94,3a11.61,11.61,0,0,1,4.27,7.74h-5.9a8,8,0,0,0-2.59-4.46,8.16,8.16,0,0,0-5.72-1.93A7.83,7.83,0,0,0,297.9,50a6,6,0,0,0-2,4.85,6,6,0,0,0,1.3,4,9,9,0,0,0,3.22,2.41,54.16,54.16,0,0,0,5.29,2,54.26,54.26,0,0,1,6.6,2.52,11.24,11.24,0,0,1,4.24,3.64,11,11,0,0,1,1.75,6.48,11.37,11.37,0,0,1-1.45,5.6,10.89,10.89,0,0,1-4.39,4.21,15,15,0,0,1-7.29,1.63,17.49,17.49,0,0,1-7.49-1.54,13.31,13.31,0,0,1-5.24-4.21,11.91,11.91,0,0,1-2.26-6.11H296a8.27,8.27,0,0,0,4.24,6.35A9.46,9.46,0,0,0,305,82.94,7.51,7.51,0,0,0,310.54,81a6.73,6.73,0,0,0,1.93-4.94,6.4,6.4,0,0,0-1.36-4.22,9.6,9.6,0,0,0-3.34-2.55,43.23,43.23,0,0,0-5.42-2,54.91,54.91,0,0,1-6.47-2.5,11,11,0,0,1-4.15-3.52,10.23,10.23,0,0,1-1.72-6.2A10.64,10.64,0,0,1,291.61,49.23Zm-58.79-4.76h5.48V62.83h21.55V44.47h5.54V86.91h-5.54V67.29H238.3V86.91h-5.48Zm-66.44,75.84a176.67,176.67,0,0,0-20.16-6.48,179.38,179.38,0,0,0-21-4.07,180.82,180.82,0,0,0,4.11,20.92,182.72,182.72,0,0,0,6.51,20.17H95.75a188.81,188.81,0,0,0,6.49-20.18,190.68,190.68,0,0,0,4.24-20.91,174.83,174.83,0,0,0-41.13,10.55v-40a191.51,191.51,0,0,0,20.16,6.48,191.74,191.74,0,0,0,21,4.25,180.64,180.64,0,0,0-4.17-20.89,182.21,182.21,0,0,0-6.56-20.2h40.12A174.17,174.17,0,0,0,125.26,91a187.16,187.16,0,0,0,20.89-4.24,186.36,186.36,0,0,0,20.23-6.56Zm113.46,36.1h-10.3V130l-9.15,26.43h-8.91l-9.21-26.49v26.49H232V114.15h12.58l11.5,29.43,11.26-29.43h12.52Zm1.32-69.5h-5.48V44.47h5.48Zm36.3,69.5-2.65-7.77H298.86l-2.65,7.77H285.38L301,114.15h11.86l15.59,42.26Zm40.46,0h-24V113.84h10.29v34.68h13.73Zm3.43-102a19.53,19.53,0,0,1,7.5-7.74,20.89,20.89,0,0,1,10.68-2.77,20.58,20.58,0,0,1,10.63,2.77,19.64,19.64,0,0,1,7.43,7.74,23,23,0,0,1,2.71,11.22,23,23,0,0,1-2.71,11.23,19.7,19.7,0,0,1-7.43,7.74,20.68,20.68,0,0,1-10.63,2.77,21,21,0,0,1-10.68-2.77,19.6,19.6,0,0,1-7.5-7.74,23,23,0,0,1-2.71-11.23A23,23,0,0,1,361.35,54.44Zm27.82,102H375.86l-14.75-42.57h11l10.41,32,10.42-32h11Zm30.58,0h-10.3V113.84h10.3Zm-5.06-86.83V86.91h-5.48V44.47h14c4.81,0,8.43,1.16,10.83,3.46a12.13,12.13,0,0,1,3.62,9.18,11.9,11.9,0,0,1-2.89,8.34q-2.89,3.17-8.37,4l11.56,17.51h-6.2L420.65,69.58Zm51.47,86.83H455.87l-17.22-26.13v26.13H428.36V113.84h10.29l17.22,26.37V113.84h10.29Zm-1.92-69.5h-5.9l15.71-41.66h6.2L495.9,86.91H490l-3.55-9.81H467.79Zm39.55,69.5-2.65-7.77H485.19l-2.65,7.77H471.7l15.59-42.26h11.86l15.6,42.26Zm5.39-70.61a13.31,13.31,0,0,1-5.24-4.21,12,12,0,0,1-2.26-6.11h5.84a8.31,8.31,0,0,0,4.25,6.35,9.42,9.42,0,0,0,4.72,1.11A7.51,7.51,0,0,0,522,81,6.69,6.69,0,0,0,524,76.08a6.35,6.35,0,0,0-1.36-4.22,9.51,9.51,0,0,0-3.34-2.55,43.23,43.23,0,0,0-5.42-2,54.91,54.91,0,0,1-6.47-2.5,11.07,11.07,0,0,1-4.15-3.52,10.23,10.23,0,0,1-1.72-6.2,10.64,10.64,0,0,1,1.6-5.84,10.49,10.49,0,0,1,4.57-3.92,16.59,16.59,0,0,1,7-1.38q6.25,0,9.93,3a11.61,11.61,0,0,1,4.27,7.74H523a8,8,0,0,0-2.58-4.46,8.2,8.2,0,0,0-5.72-1.93,7.84,7.84,0,0,0-5.3,1.72,6,6,0,0,0-2,4.85,6,6,0,0,0,1.3,4,9,9,0,0,0,3.22,2.41,53.52,53.52,0,0,0,5.3,2,54.67,54.67,0,0,1,6.59,2.52,11.24,11.24,0,0,1,4.24,3.64,11,11,0,0,1,1.75,6.48,11.37,11.37,0,0,1-1.45,5.6A10.89,10.89,0,0,1,524,85.71a15,15,0,0,1-7.29,1.63A17.53,17.53,0,0,1,509.18,85.8Zm39.91,64.83a12.11,12.11,0,0,1-5.05,4.51,17.76,17.76,0,0,1-8.1,1.69q-7.17,0-11.8-3.49a12.66,12.66,0,0,1-5.06-9.76h11a5.79,5.79,0,0,0,1.71,3.8,5.31,5.31,0,0,0,3.77,1.38,4.38,4.38,0,0,0,3.13-1.08,3.8,3.8,0,0,0,1.14-2.89,3.74,3.74,0,0,0-1-2.71,8.42,8.42,0,0,0-2.62-1.78c-1-.46-2.49-1-4.33-1.65a52.92,52.92,0,0,1-6.6-2.68,12.16,12.16,0,0,1-4.39-3.85,12.53,12.53,0,0,1,.09-13.22,12.25,12.25,0,0,1,5.32-4.24,19.34,19.34,0,0,1,7.8-1.48q7.11,0,11.29,3.37a12.87,12.87,0,0,1,4.73,9.27H538.89a5.7,5.7,0,0,0-1.54-3.34,4.51,4.51,0,0,0-3.34-1.23,4.32,4.32,0,0,0-2.92,1,4,4,0,0,0-.12,5.39,7.61,7.61,0,0,0,2.5,1.72q1.5.66,4.34,1.68a49.54,49.54,0,0,1,6.68,2.74,12.8,12.8,0,0,1,4.45,3.94,11.26,11.26,0,0,1,1.87,6.75A11.68,11.68,0,0,1,549.09,150.63Zm39.1-73.74a17.74,17.74,0,0,1-7.61,7.41,25.91,25.91,0,0,1-12.07,2.61H555V44.47h13.49A26.29,26.29,0,0,1,580.58,47a17.37,17.37,0,0,1,7.61,7.34,23.38,23.38,0,0,1,2.59,11.29A23.2,23.2,0,0,1,588.19,76.89Zm34.92-28H605.17V63.44H621.3v4.21H605.17V82.46h17.94v4.45H599.69V44.47h23.42Z" class="b98cc921-d756-4aaa-aab5-1d7addf605c6"/></svg>